<svg xmlns="http://www.w3.org/2000/svg" xmlns:xlink="http://www.w3.org/1999/xlink" width="146.657" height="40.219" viewBox="0 0 146.657 40.219"><defs><style>.a{fill:#333;fill-rule:evenodd;}.b{fill:url(#a);}.c{fill:url(#b);}.d{fill:url(#c);}</style><linearGradient id="a" y1="0.5" x2="1.041" y2="0.5" gradientUnits="objectBoundingBox"><stop offset="0" stop-color="#faa33f"/><stop offset="0.206" stop-color="#f8953d"/><stop offset="0.594" stop-color="#f4713a"/><stop offset="1" stop-color="#ef4536"/></linearGradient><linearGradient id="b" y1="0.5" x2="1" y2="0.5" gradientUnits="objectBoundingBox"><stop offset="0" stop-color="#f1e931"/><stop offset="0.105" stop-color="#e3e131"/><stop offset="0.303" stop-color="#bfcd32"/><stop offset="0.572" stop-color="#84ad34"/><stop offset="0.899" stop-color="#348136"/><stop offset="0.997" stop-color="#1b7337"/></linearGradient><linearGradient id="c" x1="0" y1="0.5" x2="1" y2="0.5" xlink:href="#a"/></defs><g transform="translate(-2847.769 -25.938)"><path class="a" d="M2969.212,37.14a12.972,12.972,0,0,1,0,2.4,1.272,1.272,0,0,1-.536.045q-3.663,0-7.329,0c-.846,0-1.69-.006-2.535,0a4.144,4.144,0,0,0-.732.064,1.431,1.431,0,0,0-1.171,1.535,1.349,1.349,0,0,0,.793,1.108,2,2,0,0,0,.8.183c.153.008.307,0,.46,0q3.135,0,6.269,0a5.553,5.553,0,0,1,1.683.213,4.166,4.166,0,0,1,3.049,3.1,4.258,4.258,0,0,1-3.494,5.371,7,7,0,0,1-1.1.1q-5.254.012-10.508.005c-.1,0-.21-.011-.311-.019a.563.563,0,0,1-.047-.15q0-1.059,0-2.118a.519.519,0,0,1,.043-.138,1.4,1.4,0,0,1,.545-.041l9.91,0c.244,0,.488-.006.735-.02a2.747,2.747,0,0,0,1.056-.3,2.138,2.138,0,0,0,.737-.616,1.635,1.635,0,0,0-.176-2.216,2.479,2.479,0,0,0-1.445-.649,7.433,7.433,0,0,0-.919-.056q-3.157-.006-6.316,0a5.5,5.5,0,0,1-1.729-.222,3.726,3.726,0,0,1-2.6-2.529,3.793,3.793,0,0,1,2.61-4.83,4.484,4.484,0,0,1,1.223-.207c.183,0,.368-.008.552-.008h10.48Z"/><path class="a" d="M2904.36,37.148V49.925a2.679,2.679,0,0,1-.085.822.844.844,0,0,1-1.057.639,1.5,1.5,0,0,1-.672-.291,7.067,7.067,0,0,1-.735-.623q-4.267-4.275-8.521-8.557c-.116-.119-.24-.232-.353-.342-.155.078-.1.2-.1.295-.005,1.246,0,2.488,0,3.733q0,2.557,0,5.115c0,.168-.008.332-.017.517a3.435,3.435,0,0,1-.791.037c-.277.008-.552.006-.831,0a5.783,5.783,0,0,1-.768-.019,1.436,1.436,0,0,1-.051-.572q0-3.5,0-7.006,0-2.511,0-5.024a3.727,3.727,0,0,1,.029-.55,1.043,1.043,0,0,1,1.45-.9,2.28,2.28,0,0,1,.568.3,3.561,3.561,0,0,1,.484.424q4.266,4.272,8.526,8.547c.119.117.24.228.353.336.121-.045.1-.129.1-.2.006-.137,0-.274,0-.413V37.759c0-.182.008-.365.012-.57a2.568,2.568,0,0,1,.785-.049c.278-.01.553,0,.832,0C2903.78,37.14,2904.038,37.145,2904.36,37.148Z"/><path class="a" d="M2907.69,37.185c.43-.057,10.786-.09,11.946-.043a1.256,1.256,0,0,1,.215.035,14.263,14.263,0,0,1,0,2.357.9.9,0,0,1-.493.051c-1.2.006-2.4,0-3.6,0q-2.535,0-5.07,0a1.163,1.163,0,0,0-.492.043c-.055.347-.072,8.484-.018,9.113a1.774,1.774,0,0,0,.248.051c.137.012.277,0,.413,0h8.437c.182,0,.367.008.548.008a1.906,1.906,0,0,1,.072.792c.012.278,0,.553,0,.831,0,.257-.007.519-.009.767a.848.848,0,0,1-.52.069q-3.594.006-7.193,0h-4.438a2.352,2.352,0,0,1-.052-.283c-.008-.109,0-.214,0-.322q0-6.455,0-12.91C2907.681,37.573,2907.687,37.392,2907.69,37.185Z"/><path class="a" d="M2939.712,37.181a.928.928,0,0,1,.193-.039h13.332a1.012,1.012,0,0,1,.06.232c0,.66,0,1.322,0,1.982a.807.807,0,0,1-.032.168.922.922,0,0,1-.508.065c-1.49,0-2.981,0-4.471,0a1.421,1.421,0,0,0-.523.043,2.054,2.054,0,0,0-.033.264c-.006.138,0,.279,0,.417v10.37a1.924,1.924,0,0,1-.031.533,14.542,14.542,0,0,1-2.386.012,2.165,2.165,0,0,1-.035-.25c-.006-.137,0-.278,0-.416q0-5.187,0-10.37a1.649,1.649,0,0,0-.038-.549,1.032,1.032,0,0,0-.5-.054c-1.491,0-2.982,0-4.471,0-.168,0-.336-.008-.508-.012a1.859,1.859,0,0,1-.066-.785c-.014-.275-.008-.553,0-.828A3.958,3.958,0,0,1,2939.712,37.181Z"/><path class="a" d="M2988.712,44.356c.474.592.922,1.157,1.375,1.717q.69.864,1.383,1.727l1.353,1.691c.447.563.906,1.119,1.332,1.672-.023.051-.027.067-.038.076a.045.045,0,0,1-.037.02h-2.929c-.07-.076-.157-.162-.232-.258q-2.031-2.535-4.059-5.074a4.093,4.093,0,0,1-.556-.9,1.714,1.714,0,0,1,0-1.429,4.617,4.617,0,0,1,.671-1.041q1.92-2.394,3.841-4.782c.164-.2.328-.4.478-.591a30.445,30.445,0,0,1,3.108-.024c.082.133-.04.195-.1.27q-1,1.239-2,2.474-1.637,2.025-3.274,4.051C2988.927,44.075,2988.835,44.194,2988.712,44.356Z"/><path class="a" d="M2932.937,44.355c1.83,2.287,3.64,4.548,5.463,6.82-.057.043-.09.086-.125.086-.965,0-1.932,0-2.907,0-.093-.11-.184-.213-.271-.319-1.311-1.644-2.629-3.283-3.934-4.931a6.279,6.279,0,0,1-.582-.885,1.652,1.652,0,0,1,0-1.631,4.317,4.317,0,0,1,.464-.736q2.184-2.742,4.382-5.461a1.95,1.95,0,0,1,.138-.145h3.066c.083.141-.042.2-.1.272-1.028,1.281-2.064,2.556-3.095,3.834q-1.087,1.341-2.174,2.685C2933.16,44.067,2933.067,44.186,2932.937,44.355Z"/><path class="a" d="M2925.031,51.269c-.985,0-1.975,0-3.044,0,.373-.554.762-.982,1.116-1.439s.729-.912,1.094-1.367l1.068-1.332c.365-.453.73-.91,1.094-1.365s.73-.912,1.079-1.35c0-.2-.136-.3-.228-.414q-2.548-3.157-5.1-6.309a3.215,3.215,0,0,1-.345-.457c.012-.037.014-.052.025-.064a.049.049,0,0,1,.039-.018h3.018c.062.067.137.143.2.223q2.109,2.622,4.218,5.244a7.464,7.464,0,0,1,.451.639,1.842,1.842,0,0,1,0,2.123,6.07,6.07,0,0,1-.368.529q-2.083,2.61-4.176,5.217A1.263,1.263,0,0,1,2925.031,51.269Z"/><path class="a" d="M2983.261,44.355c-.495-.635-.984-1.227-1.464-1.821s-.947-1.17-1.419-1.758-.97-1.193-1.451-1.789-.947-1.164-1.424-1.767c.068-.035.1-.075.141-.075h2.96c.072.078.149.152.215.234,1.425,1.77,2.855,3.537,4.274,5.312a5.472,5.472,0,0,1,.5.77,1.718,1.718,0,0,1,0,1.721,3.936,3.936,0,0,1-.391.621c-1.443,1.816-2.894,3.623-4.364,5.459-.323,0-.659.008-1,.009s-.675,0-1.013,0-.663.008-1.06-.005c.364-.549.752-.979,1.108-1.434s.73-.912,1.094-1.367.711-.889,1.064-1.332.732-.91,1.1-1.365S2982.859,44.856,2983.261,44.355Z"/><path class="a" d="M2972.62,37.144c.832-.01,1.613-.01,2.41,0a2.883,2.883,0,0,1,.046.287c.009.107,0,.217,0,.324v12.9c0,.184,0,.366-.008.567a5.248,5.248,0,0,1-1.2.049c-.394.011-.793,0-1.209,0-.019-.11-.041-.2-.049-.284-.007-.107,0-.216,0-.324q0-6.448,0-12.9C2972.609,37.577,2972.616,37.394,2972.62,37.144Z"/><path class="a" d="M2919.219,42.909a14.085,14.085,0,0,1,.018,2.375,1.852,1.852,0,0,1-.246.053c-.185.008-.369,0-.554,0q-3.359,0-6.717,0a1.084,1.084,0,0,1-.488-.041,15.884,15.884,0,0,1-.024-2.352c.1-.107.229-.07.344-.07.753,0,1.5,0,2.254,0q2.463,0,4.926,0A1.283,1.283,0,0,1,2919.219,42.909Z"/><path class="b" d="M2881.464,43.108s-8.119-21.152-32.807-16.5c0,0,18.075.393,24.36,14.6,0,0-20.3,6.941-21.805,24.947C2851.212,66.157,2862.541,44.745,2881.464,43.108Z"/><path class="c" d="M2868.825,39.9s-5.762-9.493-17.416-10.473a25.587,25.587,0,0,1,10.334,9.555s-14.2,8.687-13.544,22.07C2848.2,61.05,2851.669,46.644,2868.825,39.9Z"/><path class="d" d="M2854.889,35.005a31.248,31.248,0,0,0-2.576-1.944A23,23,0,0,0,2848,49.794a29.779,29.779,0,0,1,3.117-4.834A18.522,18.522,0,0,1,2854.889,35.005Z"/></g></svg>